<svg width="480" height="251" viewBox="0 0 480 251" fill="none" xmlns="http://www.w3.org/2000/svg">
<rect width="480" height="251" fill="#E5E5E5"/>
<g clip-path="url(#clip0_0_1)">
<rect width="480" height="251" fill="#F33A2F"/>
<path d="M154.844 135.56H164.044V140H149.244V112.08H154.844V135.56ZM166.164 128.84C166.164 126.6 166.604 124.613 167.484 122.88C168.39 121.147 169.604 119.813 171.124 118.88C172.67 117.947 174.39 117.48 176.284 117.48C177.937 117.48 179.377 117.813 180.604 118.48C181.857 119.147 182.857 119.987 183.604 121V117.84H189.244V140H183.604V136.76C182.884 137.8 181.884 138.667 180.604 139.36C179.35 140.027 177.897 140.36 176.244 140.36C174.377 140.36 172.67 139.88 171.124 138.92C169.604 137.96 168.39 136.613 167.484 134.88C166.604 133.12 166.164 131.107 166.164 128.84ZM183.604 128.92C183.604 127.56 183.337 126.4 182.804 125.44C182.27 124.453 181.55 123.707 180.644 123.2C179.737 122.667 178.764 122.4 177.724 122.4C176.684 122.4 175.724 122.653 174.844 123.16C173.964 123.667 173.244 124.413 172.684 125.4C172.15 126.36 171.884 127.507 171.884 128.84C171.884 130.173 172.15 131.347 172.684 132.36C173.244 133.347 173.964 134.107 174.844 134.64C175.75 135.173 176.71 135.44 177.724 135.44C178.764 135.44 179.737 135.187 180.644 134.68C181.55 134.147 182.27 133.4 182.804 132.44C183.337 131.453 183.604 130.28 183.604 128.92ZM200.313 121.28C201.033 120.107 201.966 119.187 203.113 118.52C204.286 117.853 205.62 117.52 207.113 117.52V123.4H205.633C203.873 123.4 202.54 123.813 201.633 124.64C200.753 125.467 200.313 126.907 200.313 128.96V140H194.713V117.84H200.313V121.28ZM209.445 128.84C209.445 126.6 209.885 124.613 210.765 122.88C211.672 121.147 212.885 119.813 214.405 118.88C215.952 117.947 217.672 117.48 219.565 117.48C221.218 117.48 222.658 117.813 223.885 118.48C225.138 119.147 226.138 119.987 226.885 121V117.84H232.525V140H226.885V136.76C226.165 137.8 225.165 138.667 223.885 139.36C222.632 140.027 221.178 140.36 219.525 140.36C217.658 140.36 215.952 139.88 214.405 138.92C212.885 137.96 211.672 136.613 210.765 134.88C209.885 133.12 209.445 131.107 209.445 128.84ZM226.885 128.92C226.885 127.56 226.618 126.4 226.085 125.44C225.552 124.453 224.832 123.707 223.925 123.2C223.018 122.667 222.045 122.4 221.005 122.4C219.965 122.4 219.005 122.653 218.125 123.16C217.245 123.667 216.525 124.413 215.965 125.4C215.432 126.36 215.165 127.507 215.165 128.84C215.165 130.173 215.432 131.347 215.965 132.36C216.525 133.347 217.245 134.107 218.125 134.64C219.032 135.173 219.992 135.44 221.005 135.44C222.045 135.44 223.018 135.187 223.925 134.68C224.832 134.147 225.552 133.4 226.085 132.44C226.618 131.453 226.885 130.28 226.885 128.92ZM247.234 134.84L252.834 117.84H258.794L250.594 140H243.794L235.634 117.84H241.634L247.234 134.84ZM282.54 128.44C282.54 129.24 282.486 129.96 282.38 130.6H266.18C266.313 132.2 266.873 133.453 267.86 134.36C268.846 135.267 270.06 135.72 271.5 135.72C273.58 135.72 275.06 134.827 275.94 133.04H281.98C281.34 135.173 280.113 136.933 278.3 138.32C276.486 139.68 274.26 140.36 271.62 140.36C269.486 140.36 267.566 139.893 265.86 138.96C264.18 138 262.86 136.653 261.9 134.92C260.966 133.187 260.5 131.187 260.5 128.92C260.5 126.627 260.966 124.613 261.9 122.88C262.833 121.147 264.14 119.813 265.82 118.88C267.5 117.947 269.433 117.48 271.62 117.48C273.726 117.48 275.606 117.933 277.26 118.84C278.94 119.747 280.233 121.04 281.14 122.72C282.073 124.373 282.54 126.28 282.54 128.44ZM276.74 126.84C276.713 125.4 276.193 124.253 275.18 123.4C274.166 122.52 272.926 122.08 271.46 122.08C270.073 122.08 268.9 122.507 267.94 123.36C267.006 124.187 266.433 125.347 266.22 126.84H276.74ZM292.227 110.4V140H286.627V110.4H292.227ZM305.971 116V110.84H315.611V140H309.851V116H305.971ZM320.463 116V110.84H330.103V140H324.343V116H320.463Z" fill="white"/>
</g>
<defs>
<clipPath id="clip0_0_1">
<rect width="480" height="251" fill="white"/>
</clipPath>
</defs>
</svg>
